<svg width="19" height="19" viewBox="0 0 19 19" fill="none" xmlns="http://www.w3.org/2000/svg">
<path fill-rule="evenodd" clip-rule="evenodd" d="M17.7936 18.2758C17.606 18.4638 17.3515 18.5688 17.0861 18.5688C16.8207 18.5688 16.5662 18.4638 16.3786 18.2758L11.2296 13.1258C8.2872 15.3358 4.13729 14.8968 1.72229 12.1204C-0.692806 9.34377 -0.552105 5.17307 2.0445 2.56547C4.6411 -0.0421269 8.8111 -0.20042 11.598 2.20278C14.3848 4.60608 14.8412 8.75408 12.6436 11.7058L17.7936 16.8558C18.1836 17.2488 18.1836 17.8828 17.7936 18.2758ZM10.5936 4.00577C9.16369 2.57547 7.013 2.14748 5.1445 2.92128C3.2759 3.69508 2.05759 5.51838 2.05759 7.54078C2.05759 9.56328 3.2759 11.3866 5.1445 12.1604C7.013 12.9342 9.16369 12.5061 10.5936 11.0758C11.5342 10.1399 12.063 8.86768 12.063 7.54078C12.063 6.21398 11.5342 4.94177 10.5936 4.00577Z" fill="#030303"/>
</svg>
