<svg width="50" height="34" viewBox="0 0 50 34" fill="none" xmlns="http://www.w3.org/2000/svg">
<g clip-path="url(#clip0_119_180)">
<path d="M31.4615 0.344463C27.0115 0.344463 23.2052 3.36026 21.6552 7.631C20.5425 7.13194 19.3074 6.86511 18.011 6.86511C13.6408 6.86511 10.0034 10.0119 9.20806 14.1835C8.64807 14.0422 8.06093 13.9708 7.45694 13.9708C3.52423 13.9708 0.338867 17.1587 0.338867 21.0871C0.338867 25.0156 3.52423 28.2035 7.45694 28.2035C8.6936 28.2035 9.86058 27.8851 10.874 27.3312C12.6232 29.1141 15.4656 30.2777 18.6736 30.2777C21.2575 30.2777 23.5987 29.5235 25.3279 28.2992C26.8138 29.8823 28.8935 30.8628 31.1965 30.8628C34.1887 30.8628 36.8045 29.2029 38.2294 26.7249C39.2104 27.2858 40.3187 27.6078 41.4855 27.6078C45.5639 27.6078 48.8686 23.7598 48.8686 19.0129C48.8686 14.4411 45.8001 10.7088 41.9304 10.4392C41.275 4.74516 36.8361 0.344463 31.4615 0.344463Z" fill="white" stroke="black" stroke-width="2" stroke-linecap="round" stroke-linejoin="round"/>
</g>
<defs>
<clipPath id="clip0_119_180">
<rect width="50" height="34" fill="white"/>
</clipPath>
</defs>
</svg>
