<svg width="63" height="49" viewBox="0 0 63 49" fill="none" xmlns="http://www.w3.org/2000/svg">
<g clip-path="url(#clip0_111_146)">
<path d="M46 23L41.1562 18.8538L43.7261 13.0175L37.5586 11.392L37.3416 5.01795L31.0789 6.21975L28.1174 0.571826L23 4.38095L17.8826 0.571826L14.9211 6.21975L8.6584 5.01795L8.44133 11.392L2.27393 13.0176L4.8438 18.8536L0 23L4.8438 27.1462L2.27393 32.9825L8.44144 34.608L8.6584 40.9821L14.9211 39.7803L17.8826 45.4282L23 41.619L28.1173 45.4282L31.0789 39.7803L37.3416 40.9821L37.5587 34.608L43.7261 32.9824L41.1562 27.1464L46 23Z" fill="#F5C525" stroke="black" stroke-width="2"/>
<path d="M23 7.66666C31.4684 7.66666 38.3334 14.5316 38.3334 23C38.3334 31.4684 31.4684 38.3333 23 38.3333C14.5317 38.3333 7.66669 31.4684 7.66669 23C7.66669 14.5316 14.5317 7.66666 23 7.66666Z" fill="#F8A805" stroke="black" stroke-width="2"/>
</g>
<defs>
<clipPath id="clip0_111_146">
<rect width="46" height="46" fill="white" transform="matrix(1 0 0 -1 0 46)"/>
</clipPath>
</defs>
</svg>
