<svg width="63" height="49" viewBox="0 0 63 49" fill="none" xmlns="http://www.w3.org/2000/svg">
<g clip-path="url(#clip0_111_137)">
<path d="M46 23L41.1562 18.8538L43.7261 13.0175L37.5586 11.392L37.3416 5.01795L31.0789 6.21975L28.1174 0.571826L23 4.38095L17.8826 0.571826L14.9211 6.21975L8.6584 5.01795L8.44133 11.392L2.27393 13.0176L4.8438 18.8536L0 23L4.8438 27.1462L2.27393 32.9825L8.44144 34.608L8.6584 40.9821L14.9211 39.7803L17.8826 45.4282L23 41.619L28.1173 45.4282L31.0789 39.7803L37.3416 40.9821L37.5587 34.608L43.7261 32.9824L41.1562 27.1464L46 23Z" fill="#F5C525" stroke="black" stroke-width="2"/>
<path d="M23 7.66666C31.4684 7.66666 38.3334 14.5316 38.3334 23C38.3334 31.4684 31.4684 38.3333 23 38.3333C14.5317 38.3333 7.66669 31.4684 7.66669 23C7.66669 14.5316 14.5317 7.66666 23 7.66666Z" fill="#F8A805" stroke="black" stroke-width="2"/>
</g>
<g clip-path="url(#clip1_111_137)">
<path d="M44.4615 15.3445C40.0115 15.3445 36.2052 18.3603 34.6552 22.631C33.5425 22.1319 32.3074 21.8651 31.011 21.8651C26.6408 21.8651 23.0034 25.0119 22.2081 29.1836C21.6481 29.0422 21.0609 28.9708 20.4569 28.9708C16.5242 28.9708 13.3389 32.1587 13.3389 36.0871C13.3389 40.0156 16.5242 43.2035 20.4569 43.2035C21.6936 43.2035 22.8606 42.8851 23.874 42.3312C25.6232 44.1141 28.4656 45.2777 31.6736 45.2777C34.2575 45.2777 36.5987 44.5235 38.3279 43.2992C39.8138 44.8823 41.8935 45.8628 44.1965 45.8628C47.1887 45.8628 49.8045 44.2029 51.2294 41.7249C52.2104 42.2858 53.3187 42.6078 54.4855 42.6078C58.5639 42.6078 61.8686 38.7598 61.8686 34.0129C61.8686 29.4411 58.8001 25.7088 54.9304 25.4392C54.275 19.7452 49.8361 15.3445 44.4615 15.3445Z" fill="white" stroke="black" stroke-width="2" stroke-linecap="round" stroke-linejoin="round"/>
</g>
<defs>
<clipPath id="clip0_111_137">
<rect width="46" height="46" fill="white" transform="matrix(1 0 0 -1 0 46)"/>
</clipPath>
<clipPath id="clip1_111_137">
<rect width="50" height="34" fill="white" transform="translate(13 15)"/>
</clipPath>
</defs>
</svg>
